<svg width="194" height="194" xmlns="http://www.w3.org/2000/svg" xmlns:xlink="http://www.w3.org/1999/xlink" overflow="hidden"><defs><clipPath id="clip0"><rect x="639" y="359" width="194" height="194"/></clipPath></defs><g clip-path="url(#clip0)" transform="translate(-639 -359)"><path d="M640.5 392.334C640.5 374.753 654.753 360.5 672.334 360.5L799.666 360.5C817.247 360.5 831.5 374.753 831.5 392.334L831.5 519.666C831.5 537.247 817.247 551.5 799.666 551.5L672.334 551.5C654.753 551.5 640.5 537.247 640.5 519.666Z" stroke="#FF3F3F" stroke-width="1.33333" stroke-miterlimit="8" fill="#FF3F3F" fill-rule="evenodd"/><path d="M717 402 799 402 799 424.5 739.364 424.5 739.364 443.25 799 443.25 799 507 717 507 717 484.5 776.636 484.5 776.636 465.75 717 465.75 717 402Z" fill="#FFFFFF" fill-rule="evenodd"/><path d="M672 423 738 423 738 441 690 441 690 456 720 456 720 474 690 474 690 507 672 507 672 423Z" fill-rule="evenodd"/></g></svg>