<svg width="441" height="77" xmlns="http://www.w3.org/2000/svg" xmlns:xlink="http://www.w3.org/1999/xlink" overflow="hidden"><defs><clipPath id="clip0"><rect x="87" y="402" width="441" height="77"/></clipPath></defs><g clip-path="url(#clip0)" transform="translate(-87 -402)"><path d="M417.709 418.5 417.709 462.5 444.968 462.5 444.968 418.5ZM352.032 418.5 352.032 432.25 379.291 432.25 379.291 418.5ZM467.031 402 527 402 527 418.5 505.193 418.5 505.193 479 488.838 479 488.838 418.5 467.031 418.5ZM401.354 402 461.323 402 461.323 479 401.354 479ZM335.677 402 395.646 402 395.646 448.75 352.032 448.75 352.032 479 335.677 479ZM270 402 329.969 402 329.969 418.5 286.355 418.5 286.355 432.25 329.969 432.25 329.969 479 270 479 270 462.5 313.614 462.5 313.614 448.75 270 448.75Z" fill="#FFFFFF" fill-rule="evenodd"/><path d="M171.716 431.071 171.716 441.964 193.553 441.964 193.553 431.071ZM211.959 418 260 418 260 431.071 225.061 431.071 225.061 441.964 246.898 441.964 246.898 455.036 225.061 455.036 225.061 465.929 260 465.929 260 479 211.959 479ZM158.614 418 206.655 418 206.655 455.036 189.186 455.036 206.655 472.464 206.655 479 193.553 479 171.716 457.214 171.716 479 158.614 479ZM140.345 418 153.447 418 153.447 479 140.345 479ZM87 418 135.041 418 135.041 431.071 100.102 431.071 100.102 441.964 121.939 441.964 121.939 455.036 100.102 455.036 100.102 479 87 479Z" fill-rule="evenodd"/></g></svg>