<svg width="468" height="121" xmlns="http://www.w3.org/2000/svg" xmlns:xlink="http://www.w3.org/1999/xlink" overflow="hidden"><defs><clipPath id="clip0"><rect x="70" y="402" width="468" height="121"/></clipPath></defs><g clip-path="url(#clip0)" transform="translate(-70 -402)"><path d="M415.709 418.5 415.709 462.5 442.968 462.5 442.968 418.5ZM350.032 418.5 350.032 432.25 377.291 432.25 377.291 418.5ZM465.031 402 525 402 525 418.5 503.193 418.5 503.193 479 486.838 479 486.838 418.5 465.031 418.5ZM399.354 402 459.323 402 459.323 479 399.354 479ZM333.677 402 393.646 402 393.646 448.75 350.032 448.75 350.032 479 333.677 479ZM268 402 327.969 402 327.969 418.5 284.355 418.5 284.355 432.25 327.969 432.25 327.969 479 268 479 268 462.5 311.614 462.5 311.614 448.75 268 448.75Z" fill="#FFFFFF" fill-rule="evenodd"/><path d="M170.206 431.071 170.206 441.964 192.169 441.964 192.169 431.071ZM210.681 418 259 418 259 431.071 223.859 431.071 223.859 441.964 245.822 441.964 245.822 455.036 223.859 455.036 223.859 465.929 259 465.929 259 479 210.681 479ZM157.028 418 205.347 418 205.347 455.036 187.776 455.036 205.347 472.464 205.347 479 192.169 479 170.206 457.214 170.206 479 157.028 479ZM138.653 418 151.831 418 151.831 479 138.653 479ZM85 418 133.319 418 133.319 431.071 98.1779 431.071 98.1779 441.964 120.141 441.964 120.141 455.036 98.1779 455.036 98.1779 479 85 479Z" fill-rule="evenodd"/><text font-family="Public Sans,Public Sans_MSFontService,sans-serif" font-weight="700" font-size="21" transform="translate(83.2824 504)">DETECT WHERE THERE IS FIRE IN LIBERIA</text></g></svg>